<?xml version="1.0" encoding="UTF-8" standalone="no"?><svg xmlns="http://www.w3.org/2000/svg" xmlns:xlink="http://www.w3.org/1999/xlink" clip-rule="evenodd" stroke-miterlimit="10" viewBox="0 0 1024 768"><desc>SVG generated by Keynote</desc><defs></defs><g transform="matrix(1.00, 0.00, -0.00, -1.00, 0.0, 768.0)"><g><clipPath id="clip0x6000006b43a0"><path d="M 0.0 768.0 L 1024.0 768.0 L 1024.0 0.0 L 0.0 0.0 Z M 0.0 768.0 "></path></clipPath><g clip-path="url(#clip0x6000006b43a0)"><image xlink:href="../../51F4F382-6FD0-4C4F-A665-17FD47C04DD6/assets/5732106E1A276CE8744A133DC1FC1EF1.jpeg" width="2048.00" height="1536.00" transform="matrix(0.50, 0.00, -0.00, -0.50, 0.0, 768.0)"></image></g></g><image xlink:href="../../35EB14C2-971D-44BE-88F0-C0EB992CE380/assets/BF1C8431D71065D91272C8C80E4942AF.png" width="818.00" height="75.00" transform="matrix(1.00, 0.00, -0.00, -1.00, 67.0, 722.0)"></image><text xml:space="preserve" font-family="HelveticaNeue-Light,Helvetica Neue" font-size="72.0" fill="#FEFFFE" transform="matrix(1.00, 0.00, -0.00, -1.00, 66.0, 668.4)">R</text><text xml:space="preserve" font-family="HelveticaNeue-Light,Helvetica Neue" font-size="72.0" fill="#FEFFFE" transform="matrix(1.00, 0.00, -0.00, -1.00, 114.0, 668.4)">a</text><text xml:space="preserve" font-family="HelveticaNeue-Light,Helvetica Neue" font-size="72.0" fill="#FEFFFE" transform="matrix(1.00, 0.00, -0.00, -1.00, 151.4, 668.4)">s</text><text xml:space="preserve" font-family="HelveticaNeue-Light,Helvetica Neue" font-size="72.0" fill="#FEFFFE" transform="matrix(1.00, 0.00, -0.00, -1.00, 186.0, 668.4)">p</text><text xml:space="preserve" font-family="HelveticaNeue-Light,Helvetica Neue" font-size="72.0" fill="#FEFFFE" transform="matrix(1.00, 0.00, -0.00, -1.00, 227.4, 668.4)">b</text><text xml:space="preserve" font-family="HelveticaNeue-Light,Helvetica Neue" font-size="72.0" fill="#FEFFFE" transform="matrix(1.00, 0.00, -0.00, -1.00, 268.7, 668.4)">e</text><text xml:space="preserve" font-family="HelveticaNeue-Light,Helvetica Neue" font-size="72.0" fill="#FEFFFE" transform="matrix(1.00, 0.00, -0.00, -1.00, 306.0, 668.4)">r</text><text xml:space="preserve" font-family="HelveticaNeue-Light,Helvetica Neue" font-size="72.0" fill="#FEFFFE" transform="matrix(1.00, 0.00, -0.00, -1.00, 328.7, 668.4)">r</text><text xml:space="preserve" font-family="HelveticaNeue-Light,Helvetica Neue" font-size="72.0" fill="#FEFFFE" transform="matrix(1.00, 0.00, -0.00, -1.00, 351.4, 668.4)">y</text><text xml:space="preserve" font-family="HelveticaNeue-Light,Helvetica Neue" font-size="72.0" fill="#FEFFFE" transform="matrix(1.00, 0.00, -0.00, -1.00, 384.7, 668.4)"> </text><text xml:space="preserve" font-family="HelveticaNeue-Light,Helvetica Neue" font-size="72.0" fill="#FEFFFE" transform="matrix(1.00, 0.00, -0.00, -1.00, 404.8, 668.4)">P</text><text xml:space="preserve" font-family="HelveticaNeue-Light,Helvetica Neue" font-size="72.0" fill="#FEFFFE" transform="matrix(1.00, 0.00, -0.00, -1.00, 450.1, 668.4)">i</text><text xml:space="preserve" font-family="HelveticaNeue-Light,Helvetica Neue" font-size="72.0" fill="#FEFFFE" transform="matrix(1.00, 0.00, -0.00, -1.00, 463.4, 668.4)"> </text><text xml:space="preserve" font-family="HelveticaNeue-Light,Helvetica Neue" font-size="72.0" fill="#FEFFFE" transform="matrix(1.00, 0.00, -0.00, -1.00, 483.5, 668.4)">/</text><text xml:space="preserve" font-family="HelveticaNeue-Light,Helvetica Neue" font-size="72.0" fill="#FEFFFE" transform="matrix(1.00, 0.00, -0.00, -1.00, 507.4, 668.4)"> </text><text xml:space="preserve" font-family="HelveticaNeue-Light,Helvetica Neue" font-size="72.0" fill="#FEFFFE" transform="matrix(1.00, 0.00, -0.00, -1.00, 527.4, 668.4)">I</text><text xml:space="preserve" font-family="HelveticaNeue-Light,Helvetica Neue" font-size="72.0" fill="#FEFFFE" transform="matrix(1.00, 0.00, -0.00, -1.00, 543.4, 668.4)">n</text><text xml:space="preserve" font-family="HelveticaNeue-Light,Helvetica Neue" font-size="72.0" fill="#FEFFFE" transform="matrix(1.00, 0.00, -0.00, -1.00, 582.1, 668.4)">t</text><text xml:space="preserve" font-family="HelveticaNeue-Light,Helvetica Neue" font-size="72.0" fill="#FEFFFE" transform="matrix(1.00, 0.00, -0.00, -1.00, 603.4, 668.4)">e</text><text xml:space="preserve" font-family="HelveticaNeue-Light,Helvetica Neue" font-size="72.0" fill="#FEFFFE" transform="matrix(1.00, 0.00, -0.00, -1.00, 640.8, 668.4)">l</text><text xml:space="preserve" font-family="HelveticaNeue-Light,Helvetica Neue" font-size="72.0" fill="#FEFFFE" transform="matrix(1.00, 0.00, -0.00, -1.00, 654.1, 668.4)"> </text><text xml:space="preserve" font-family="HelveticaNeue-Light,Helvetica Neue" font-size="72.0" fill="#FEFFFE" transform="matrix(1.00, 0.00, -0.00, -1.00, 674.1, 668.4)">E</text><text xml:space="preserve" font-family="HelveticaNeue-Light,Helvetica Neue" font-size="72.0" fill="#FEFFFE" transform="matrix(1.00, 0.00, -0.00, -1.00, 716.8, 668.4)">d</text><text xml:space="preserve" font-family="HelveticaNeue-Light,Helvetica Neue" font-size="72.0" fill="#FEFFFE" transform="matrix(1.00, 0.00, -0.00, -1.00, 758.1, 668.4)">i</text><text xml:space="preserve" font-family="HelveticaNeue-Light,Helvetica Neue" font-size="72.0" fill="#FEFFFE" transform="matrix(1.00, 0.00, -0.00, -1.00, 771.5, 668.4)">s</text><text xml:space="preserve" font-family="HelveticaNeue-Light,Helvetica Neue" font-size="72.0" fill="#FEFFFE" transform="matrix(1.00, 0.00, -0.00, -1.00, 806.1, 668.4)">o</text><text xml:space="preserve" font-family="HelveticaNeue-Light,Helvetica Neue" font-size="72.0" fill="#FEFFFE" transform="matrix(1.00, 0.00, -0.00, -1.00, 846.1, 668.4)">n</text><text xml:space="preserve" font-family="HelveticaNeue-Light,Helvetica Neue" font-size="72.0" fill="#FEFFFE" transform="matrix(1.00, 0.00, -0.00, -1.00, 884.8, 668.4)"> </text><image xlink:href="../../35EB14C2-971D-44BE-88F0-C0EB992CE380/assets/CB381F0DDF79CDA30170472EF1FA9AEB.png" width="395.00" height="62.00" transform="matrix(1.00, 0.00, -0.00, -1.00, 62.0, 635.0)"></image><text xml:space="preserve" font-family="HelveticaNeue-Light,Helvetica Neue" font-size="72.0" fill="#FEFFFE" transform="matrix(1.00, 0.00, -0.00, -1.00, 66.0, 581.4)">w</text><text xml:space="preserve" font-family="HelveticaNeue-Light,Helvetica Neue" font-size="72.0" fill="#FEFFFE" transform="matrix(1.00, 0.00, -0.00, -1.00, 119.4, 581.4)">i</text><text xml:space="preserve" font-family="HelveticaNeue-Light,Helvetica Neue" font-size="72.0" fill="#FEFFFE" transform="matrix(1.00, 0.00, -0.00, -1.00, 132.7, 581.4)">t</text><text xml:space="preserve" font-family="HelveticaNeue-Light,Helvetica Neue" font-size="72.0" fill="#FEFFFE" transform="matrix(1.00, 0.00, -0.00, -1.00, 154.0, 581.4)">h</text><text xml:space="preserve" font-family="HelveticaNeue-Light,Helvetica Neue" font-size="72.0" fill="#FEFFFE" transform="matrix(1.00, 0.00, -0.00, -1.00, 192.6, 581.4)"> </text><text xml:space="preserve" font-family="HelveticaNeue-Light,Helvetica Neue" font-size="72.0" fill="#FEFFFE" transform="matrix(1.00, 0.00, -0.00, -1.00, 212.7, 581.4)">B</text><text xml:space="preserve" font-family="HelveticaNeue-Light,Helvetica Neue" font-size="72.0" fill="#FEFFFE" transform="matrix(1.00, 0.00, -0.00, -1.00, 260.7, 581.4)">T</text><text xml:space="preserve" font-family="HelveticaNeue-Light,Helvetica Neue" font-size="72.0" fill="#FEFFFE" transform="matrix(1.00, 0.00, -0.00, -1.00, 300.7, 581.4)">/</text><text xml:space="preserve" font-family="HelveticaNeue-Light,Helvetica Neue" font-size="72.0" fill="#FEFFFE" transform="matrix(1.00, 0.00, -0.00, -1.00, 324.7, 581.4)">B</text><text xml:space="preserve" font-family="HelveticaNeue-Light,Helvetica Neue" font-size="72.0" fill="#FEFFFE" transform="matrix(1.00, 0.00, -0.00, -1.00, 372.7, 581.4)">L</text><text xml:space="preserve" font-family="HelveticaNeue-Light,Helvetica Neue" font-size="72.0" fill="#FEFFFE" transform="matrix(1.00, 0.00, -0.00, -1.00, 411.4, 581.4)">E</text><image xlink:href="../../198C018A-9DC5-46A3-A4C1-B0378EB36309/assets/EFDBAD4F4D4346BEFBA0235E61BFD3F9.png" width="13.00" height="14.00" transform="matrix(1.00, 0.00, -0.00, -1.00, 66.0, 409.0)"></image><g><clipPath id="clip0x608000eb9080"><path d="M 66.0 395.9 L 78.7 395.9 L 78.7 408.7 L 66.0 408.7 Z M 66.0 395.9 "></path></clipPath><g clip-path="url(#clip0x608000eb9080)"><g><g><clipPath id="clip0x608000eb7dc0"><path d="M 66.0 408.7 L 78.7 408.7 L 78.7 395.9 L 66.0 395.9 Z M 66.0 408.7 "></path></clipPath><g clip-path="url(#clip0x608000eb7dc0)"><g><clipPath id="clip0x608000ca8220"><path d="M 62.0 388.0 L 83.0 388.0 L 83.0 416.0 L 62.0 416.0 Z M 62.0 388.0 "></path></clipPath><g clip-path="url(#clip0x608000ca8220)"><path d="M 78.7 406.1 C 78.7 406.7 78.4 407.2 77.9 407.8 C 77.4 408.4 76.8 408.7 76.1 408.7 C 75.9 408.7 75.4 408.5 74.8 408.2 C 73.8 407.7 73.0 407.5 72.3 407.5 C 71.6 407.5 70.8 407.7 69.8 408.2 C 69.2 408.5 68.8 408.7 68.5 408.7 C 67.9 408.7 67.3 408.4 66.8 407.8 C 66.3 407.3 66.0 406.7 66.0 406.1 C 66.0 405.8 66.1 405.3 66.4 404.7 C 66.9 403.8 67.1 403.0 67.1 402.3 C 67.1 401.6 66.9 400.8 66.4 399.8 C 66.1 399.2 66.0 398.8 66.0 398.5 C 66.0 397.9 66.3 397.3 66.8 396.7 C 67.3 396.2 67.9 395.9 68.5 395.9 C 68.8 395.9 69.2 396.1 69.8 396.4 C 70.8 396.8 71.6 397.1 72.3 397.1 C 73.0 397.1 73.8 396.8 74.8 396.4 C 75.4 396.1 75.9 395.9 76.1 395.9 C 76.8 395.9 77.4 396.2 77.9 396.7 C 78.4 397.3 78.7 397.9 78.7 398.5 C 78.7 398.8 78.5 399.2 78.2 399.8 C 77.8 400.8 77.5 401.6 77.5 402.3 C 77.5 403.0 77.8 403.8 78.2 404.7 C 78.5 405.3 78.7 405.8 78.7 406.1 " fill="#FFFFFF"></path></g></g></g></g></g></g></g><image xlink:href="../../35EB14C2-971D-44BE-88F0-C0EB992CE380/assets/5B4F34F2D71DE68D53D1A963EE45A8A6.png" width="188.00" height="35.00" transform="matrix(1.00, 0.00, -0.00, -1.00, 99.0, 418.0)"></image><text xml:space="preserve" font-family="HelveticaNeue-Light,Helvetica Neue" font-size="36.0" fill="#FEFFFE" transform="matrix(1.00, 0.00, -0.00, -1.00, 101.0, 390.7)">i</text><text xml:space="preserve" font-family="HelveticaNeue-Light,Helvetica Neue" font-size="36.0" fill="#FEFFFE" transform="matrix(1.00, 0.00, -0.00, -1.00, 107.7, 390.7)">n</text><text xml:space="preserve" font-family="HelveticaNeue-Light,Helvetica Neue" font-size="36.0" fill="#FEFFFE" transform="matrix(1.00, 0.00, -0.00, -1.00, 127.0, 390.7)">s</text><text xml:space="preserve" font-family="HelveticaNeue-Light,Helvetica Neue" font-size="36.0" fill="#FEFFFE" transform="matrix(1.00, 0.00, -0.00, -1.00, 144.3, 390.7)">t</text><text xml:space="preserve" font-family="HelveticaNeue-Light,Helvetica Neue" font-size="36.0" fill="#FEFFFE" transform="matrix(1.00, 0.00, -0.00, -1.00, 155.0, 390.7)">a</text><text xml:space="preserve" font-family="HelveticaNeue-Light,Helvetica Neue" font-size="36.0" fill="#FEFFFE" transform="matrix(1.00, 0.00, -0.00, -1.00, 173.6, 390.7)">l</text><text xml:space="preserve" font-family="HelveticaNeue-Light,Helvetica Neue" font-size="36.0" fill="#FEFFFE" transform="matrix(1.00, 0.00, -0.00, -1.00, 180.3, 390.7)">l</text><text xml:space="preserve" font-family="HelveticaNeue-Light,Helvetica Neue" font-size="36.0" fill="#FEFFFE" transform="matrix(1.00, 0.00, -0.00, -1.00, 187.0, 390.7)"> </text><text xml:space="preserve" font-family="HelveticaNeue-Light,Helvetica Neue" font-size="36.0" fill="#FEFFFE" transform="matrix(1.00, 0.00, -0.00, -1.00, 197.0, 390.7)">b</text><text xml:space="preserve" font-family="HelveticaNeue-Light,Helvetica Neue" font-size="36.0" fill="#FEFFFE" transform="matrix(1.00, 0.00, -0.00, -1.00, 217.6, 390.7)">l</text><text xml:space="preserve" font-family="HelveticaNeue-Light,Helvetica Neue" font-size="36.0" fill="#FEFFFE" transform="matrix(1.00, 0.00, -0.00, -1.00, 224.3, 390.7)">u</text><text xml:space="preserve" font-family="HelveticaNeue-Light,Helvetica Neue" font-size="36.0" fill="#FEFFFE" transform="matrix(1.00, 0.00, -0.00, -1.00, 243.6, 390.7)">e</text><text xml:space="preserve" font-family="HelveticaNeue-Light,Helvetica Neue" font-size="36.0" fill="#FEFFFE" transform="matrix(1.00, 0.00, -0.00, -1.00, 262.3, 390.7)">Z</text><text xml:space="preserve" font-family="HelveticaNeue-Light,Helvetica Neue" font-size="36.0" fill="#FEFFFE" transform="matrix(1.00, 0.00, -0.00, -1.00, 283.0, 390.7)"> </text><image xlink:href="../../198C018A-9DC5-46A3-A4C1-B0378EB36309/assets/EFDBAD4F4D4346BEFBA0235E61BFD3F9.png" width="13.00" height="14.00" transform="matrix(1.00, 0.00, -0.00, -1.00, 66.0, 329.0)"></image><g><clipPath id="clip0x608000abc020"><path d="M 66.0 315.9 L 78.7 315.9 L 78.7 328.7 L 66.0 328.7 Z M 66.0 315.9 "></path></clipPath><g clip-path="url(#clip0x608000abc020)"><g><g><clipPath id="clip0x608000ebc140"><path d="M 66.0 328.7 L 78.7 328.7 L 78.7 315.9 L 66.0 315.9 Z M 66.0 328.7 "></path></clipPath><g clip-path="url(#clip0x608000ebc140)"><g><clipPath id="clip0x608000cb68c0"><path d="M 62.0 308.0 L 83.0 308.0 L 83.0 336.0 L 62.0 336.0 Z M 62.0 308.0 "></path></clipPath><g clip-path="url(#clip0x608000cb68c0)"><path d="M 78.7 326.1 C 78.7 326.7 78.4 327.2 77.9 327.8 C 77.4 328.4 76.8 328.7 76.1 328.7 C 75.9 328.7 75.4 328.5 74.8 328.2 C 73.8 327.7 73.0 327.5 72.3 327.5 C 71.6 327.5 70.8 327.7 69.8 328.2 C 69.2 328.5 68.8 328.7 68.5 328.7 C 67.9 328.7 67.3 328.4 66.8 327.8 C 66.3 327.3 66.0 326.7 66.0 326.1 C 66.0 325.8 66.1 325.3 66.4 324.7 C 66.9 323.8 67.1 323.0 67.1 322.3 C 67.1 321.6 66.9 320.8 66.4 319.8 C 66.1 319.2 66.0 318.8 66.0 318.5 C 66.0 317.9 66.3 317.3 66.8 316.7 C 67.3 316.2 67.9 315.9 68.5 315.9 C 68.8 315.9 69.2 316.1 69.8 316.4 C 70.8 316.8 71.6 317.1 72.3 317.1 C 73.0 317.1 73.8 316.8 74.8 316.4 C 75.4 316.1 75.9 315.9 76.1 315.9 C 76.8 315.9 77.4 316.2 77.9 316.7 C 78.4 317.3 78.7 317.9 78.7 318.5 C 78.7 318.8 78.5 319.2 78.2 319.8 C 77.8 320.8 77.5 321.6 77.5 322.3 C 77.5 323.0 77.8 323.8 78.2 324.7 C 78.5 325.3 78.7 325.8 78.7 326.1 " fill="#FFFFFF"></path></g></g></g></g></g></g></g><image xlink:href="../../35EB14C2-971D-44BE-88F0-C0EB992CE380/assets/BBD522E56207EB36BAA5854E0D2B4AB1.png" width="174.00" height="45.00" transform="matrix(1.00, 0.00, -0.00, -1.00, 98.0, 341.0)"></image><text xml:space="preserve" font-family="HelveticaNeue-Light,Helvetica Neue" font-size="36.0" fill="#FEFFFE" transform="matrix(1.00, 0.00, -0.00, -1.00, 101.0, 310.7)">$</text><text xml:space="preserve" font-family="HelveticaNeue-Light,Helvetica Neue" font-size="36.0" fill="#FEFFFE" transform="matrix(1.00, 0.00, -0.00, -1.00, 121.0, 310.7)"> </text><text xml:space="preserve" font-family="HelveticaNeue-Light,Helvetica Neue" font-size="36.0" fill="#FEFFFE" transform="matrix(1.00, 0.00, -0.00, -1.00, 131.0, 310.7)">h</text><text xml:space="preserve" font-family="HelveticaNeue-Light,Helvetica Neue" font-size="36.0" fill="#FEFFFE" transform="matrix(1.00, 0.00, -0.00, -1.00, 150.4, 310.7)">c</text><text xml:space="preserve" font-family="HelveticaNeue-Light,Helvetica Neue" font-size="36.0" fill="#FEFFFE" transform="matrix(1.00, 0.00, -0.00, -1.00, 169.0, 310.7)">i</text><text xml:space="preserve" font-family="HelveticaNeue-Light,Helvetica Neue" font-size="36.0" fill="#FEFFFE" transform="matrix(1.00, 0.00, -0.00, -1.00, 175.7, 310.7)">c</text><text xml:space="preserve" font-family="HelveticaNeue-Light,Helvetica Neue" font-size="36.0" fill="#FEFFFE" transform="matrix(1.00, 0.00, -0.00, -1.00, 194.4, 310.7)">o</text><text xml:space="preserve" font-family="HelveticaNeue-Light,Helvetica Neue" font-size="36.0" fill="#FEFFFE" transform="matrix(1.00, 0.00, -0.00, -1.00, 214.4, 310.7)">n</text><text xml:space="preserve" font-family="HelveticaNeue-Light,Helvetica Neue" font-size="36.0" fill="#FEFFFE" transform="matrix(1.00, 0.00, -0.00, -1.00, 233.7, 310.7)">ﬁ</text><text xml:space="preserve" font-family="HelveticaNeue-Light,Helvetica Neue" font-size="36.0" fill="#FEFFFE" transform="matrix(1.00, 0.00, -0.00, -1.00, 249.7, 310.7)">g</text><text xml:space="preserve" font-family="HelveticaNeue-Light,Helvetica Neue" font-size="36.0" fill="#FEFFFE" transform="matrix(1.00, 0.00, -0.00, -1.00, 269.7, 310.7)"> </text><image xlink:href="../../35EB14C2-971D-44BE-88F0-C0EB992CE380/assets/9FED704ECED389F2B4C6B4C2560C8141.png" width="13.00" height="14.00" transform="matrix(1.00, 0.00, -0.00, -1.00, 66.0, 249.0)"></image><g><clipPath id="clip0x6080008ae100"><path d="M 66.0 235.9 L 78.7 235.9 L 78.7 248.7 L 66.0 248.7 Z M 66.0 235.9 "></path></clipPath><g clip-path="url(#clip0x6080008ae100)"><g><g><clipPath id="clip0x608000eaa6e0"><path d="M 66.0 248.7 L 78.7 248.7 L 78.7 235.9 L 66.0 235.9 Z M 66.0 248.7 "></path></clipPath><g clip-path="url(#clip0x608000eaa6e0)"><g><clipPath id="clip0x608000ebdee0"><path d="M 62.0 228.0 L 83.0 228.0 L 83.0 256.0 L 62.0 256.0 Z M 62.0 228.0 "></path></clipPath><g clip-path="url(#clip0x608000ebdee0)"><path d="M 78.7 246.1 C 78.7 246.7 78.4 247.2 77.9 247.8 C 77.4 248.4 76.8 248.7 76.1 248.7 C 75.9 248.7 75.4 248.5 74.8 248.2 C 73.8 247.7 73.0 247.5 72.3 247.5 C 71.6 247.5 70.8 247.7 69.8 248.2 C 69.2 248.5 68.8 248.7 68.5 248.7 C 67.9 248.7 67.3 248.4 66.8 247.8 C 66.3 247.3 66.0 246.7 66.0 246.1 C 66.0 245.8 66.1 245.3 66.4 244.7 C 66.9 243.8 67.1 243.0 67.1 242.3 C 67.1 241.6 66.9 240.8 66.4 239.8 C 66.1 239.2 66.0 238.8 66.0 238.5 C 66.0 237.9 66.3 237.3 66.8 236.7 C 67.3 236.2 67.9 235.9 68.5 235.9 C 68.8 235.9 69.2 236.1 69.8 236.4 C 70.8 236.8 71.6 237.1 72.3 237.1 C 73.0 237.1 73.8 236.8 74.8 236.4 C 75.4 236.1 75.9 235.9 76.1 235.9 C 76.8 235.9 77.4 236.2 77.9 236.7 C 78.4 237.3 78.7 237.9 78.7 238.5 C 78.7 238.8 78.5 239.2 78.2 239.8 C 77.8 240.8 77.5 241.6 77.5 242.3 C 77.5 243.0 77.8 243.8 78.2 244.7 C 78.5 245.3 78.7 245.8 78.7 246.1 " fill="#FFFFFF"></path></g></g></g></g></g></g></g><image xlink:href="../../35EB14C2-971D-44BE-88F0-C0EB992CE380/assets/B42A2CF0ED2334CEECAE8AFC529E97CF.png" width="26.00" height="41.00" transform="matrix(1.00, 0.00, -0.00, -1.00, 98.0, 261.0)"></image><text xml:space="preserve" font-family="HelveticaNeue-Light,Helvetica Neue" font-size="36.0" fill="#FEFFFE" transform="matrix(1.00, 0.00, -0.00, -1.00, 101.0, 230.7)">$</text><text xml:space="preserve" font-family="HelveticaNeue-Light,Helvetica Neue" font-size="36.0" fill="#FEFFFE" transform="matrix(1.00, 0.00, -0.00, -1.00, 121.0, 230.7)"> </text><image xlink:href="../../35EB14C2-971D-44BE-88F0-C0EB992CE380/assets/98B0A6C9B7D87848498B3D3D11B57D75.png" width="269.00" height="42.00" transform="matrix(1.00, 0.00, -0.00, -1.00, 129.0, 258.0)"></image><text xml:space="preserve" font-family="HelveticaNeue-Light,Helvetica Neue" font-size="36.0" fill="#FEFFFE" transform="matrix(1.00, 0.00, -0.00, -1.00, 131.0, 230.7)">h</text><text xml:space="preserve" font-family="HelveticaNeue-Light,Helvetica Neue" font-size="36.0" fill="#FEFFFE" transform="matrix(1.00, 0.00, -0.00, -1.00, 150.4, 230.7)">c</text><text xml:space="preserve" font-family="HelveticaNeue-Light,Helvetica Neue" font-size="36.0" fill="#FEFFFE" transform="matrix(1.00, 0.00, -0.00, -1.00, 169.0, 230.7)">i</text><text xml:space="preserve" font-family="HelveticaNeue-Light,Helvetica Neue" font-size="36.0" fill="#FEFFFE" transform="matrix(1.00, 0.00, -0.00, -1.00, 175.7, 230.7)">c</text><text xml:space="preserve" font-family="HelveticaNeue-Light,Helvetica Neue" font-size="36.0" fill="#FEFFFE" transform="matrix(1.00, 0.00, -0.00, -1.00, 194.4, 230.7)">o</text><text xml:space="preserve" font-family="HelveticaNeue-Light,Helvetica Neue" font-size="36.0" fill="#FEFFFE" transform="matrix(1.00, 0.00, -0.00, -1.00, 214.4, 230.7)">n</text><text xml:space="preserve" font-family="HelveticaNeue-Light,Helvetica Neue" font-size="36.0" fill="#FEFFFE" transform="matrix(1.00, 0.00, -0.00, -1.00, 233.7, 230.7)">ﬁ</text><text xml:space="preserve" font-family="HelveticaNeue-Light,Helvetica Neue" font-size="36.0" fill="#FEFFFE" transform="matrix(1.00, 0.00, -0.00, -1.00, 249.7, 230.7)">g</text><text xml:space="preserve" font-family="HelveticaNeue-Light,Helvetica Neue" font-size="36.0" fill="#FEFFFE" transform="matrix(1.00, 0.00, -0.00, -1.00, 269.7, 230.7)"> </text><text xml:space="preserve" font-family="HelveticaNeue-Light,Helvetica Neue" font-size="36.0" fill="#FEFFFE" transform="matrix(1.00, 0.00, -0.00, -1.00, 279.7, 230.7)">h</text><text xml:space="preserve" font-family="HelveticaNeue-Light,Helvetica Neue" font-size="36.0" fill="#FEFFFE" transform="matrix(1.00, 0.00, -0.00, -1.00, 299.1, 230.7)">c</text><text xml:space="preserve" font-family="HelveticaNeue-Light,Helvetica Neue" font-size="36.0" fill="#FEFFFE" transform="matrix(1.00, 0.00, -0.00, -1.00, 317.8, 230.7)">i</text><text xml:space="preserve" font-family="HelveticaNeue-Light,Helvetica Neue" font-size="36.0" fill="#FEFFFE" transform="matrix(1.00, 0.00, -0.00, -1.00, 324.4, 230.7)">0</text><text xml:space="preserve" font-family="HelveticaNeue-Light,Helvetica Neue" font-size="36.0" fill="#FEFFFE" transform="matrix(1.00, 0.00, -0.00, -1.00, 344.4, 230.7)"> </text><text xml:space="preserve" font-family="HelveticaNeue-Light,Helvetica Neue" font-size="36.0" fill="#FEFFFE" transform="matrix(1.00, 0.00, -0.00, -1.00, 354.4, 230.7)">u</text><text xml:space="preserve" font-family="HelveticaNeue-Light,Helvetica Neue" font-size="36.0" fill="#FEFFFE" transform="matrix(1.00, 0.00, -0.00, -1.00, 373.8, 230.7)">p</text></g></svg>